<svg id="Layer_1" data-name="Layer 1" xmlns="http://www.w3.org/2000/svg" viewBox="0 0 1213.83 718.59"><defs><style>.cls-1{fill:none;stroke:#f8f5e9;stroke-linejoin:bevel;stroke-width:4px;}</style></defs><line class="cls-1" x1="387.81" y1="716.59" x2="845.6" y2="716.59"/><path class="cls-1" d="M948.92,789.91s20.87,46.93,20.87,107.39" transform="translate(-353.09 -180.7)"/><path class="cls-1" d="M961.16,182.7c99.53,0,189.76,37.9,247.56,104,49.84,57,71.68,130.16,61.49,206-11,81.5-57.15,157.74-130.09,214.67a412.76,412.76,0,0,1-252.76,87.06c-42.48,0-82.71-6.84-119.27-19.48" transform="translate(-353.09 -180.7)"/><path class="cls-1" d="M610.45,560.53C631,677.35,741.91,763.29,887.36,763.29c174,0,331.58-123,352-274.71S1135.16,213.87,961.16,213.87c-151,0-289.88,92.55-337,216.27l-2.28,6" transform="translate(-353.09 -180.7)"/><path class="cls-1" d="M814.49,388.23s-124,45.3-248.22,49.16l32.63,33.36-19.45,66.51,53.48-31.72" transform="translate(-353.09 -180.7)"/><line class="cls-1" x1="245.82" y1="290.04" x2="282.89" y2="275.03"/><path class="cls-1" d="M814.49,388.23,614.78,487l53.9,55.11c46-74,145.81-153.86,145.81-153.86" transform="translate(-353.09 -180.7)"/><polyline class="cls-1" points="226.37 356.56 261.7 306.28 291.07 291.76"/><path class="cls-1" d="M508,442.61c-32-35.4-54.88-90.18-27.85-129.49,22.76-33.11,69.08-38.23,109.25-37.21,188.3,4.8,368.24,74.61,542.31,146.57,55.25,22.84,111.48,46.69,156.13,86.44,18.54,16.5,35.88,42.44,24.43,64.46-8.13,15.66-32.25,35.41-124.06,40.08" transform="translate(-353.09 -180.7)"/><line class="cls-1" x1="458.17" y1="574.26" x2="447.51" y2="606.69"/><line class="cls-1" x1="646.25" y1="2" x2="636" y2="33.17"/><path class="cls-1" d="M837.48,412.7c39.37-9.08,80.14-17.78,121.9-26,334.08-66,605.12-77.64,605.53,5.29.31,60.84-145.22,128.31-354.66,186" transform="translate(-353.09 -180.7)"/><path class="cls-1" d="M673.3,680.73C484.05,700.21,355.37,688,355.09,630.85c-.22-43.27,73.34-89.9,191.2-134" transform="translate(-353.09 -180.7)"/></svg>